<svg version="1.1" viewBox="0.0 0.0 4837.795275590551 2721.259842519685" fill="none" stroke="none" stroke-linecap="square" stroke-miterlimit="10" xmlns:xlink="http://www.w3.org/1999/xlink" xmlns="http://www.w3.org/2000/svg"><clipPath id="p.0"><path d="m0 0l4837.7954 0l0 2721.2598l-4837.7954 0l0 -2721.2598z" clip-rule="nonzero"/></clipPath><g clip-path="url(#p.0)"><path fill="#ffffff" d="m0 0l4837.7954 0l0 2721.2598l-4837.7954 0z" fill-rule="evenodd"/><path fill="#000000" fill-opacity="0.0" d="m2326.677 993.9141l184.44092 0l0 178.48822l-184.44092 0z" fill-rule="evenodd"/><path fill="#000000" d="m2397.3037 1109.3828l0 -28.734375l17.1875 0l0 -10.59375l-25.859375 0l0 -7.875l25.859375 0l0 -11.921875l8.875 0l0 11.921875l25.796875 0l0 7.875l-25.796875 0l0 10.59375l17.1875 0l0 28.734375l-43.25 0zm8.796875 -7.40625l25.65625 0l0 -14.0l-25.65625 0l0 14.0z" fill-rule="nonzero"/><path fill="#ff0000" d="m2365.0552 1306.7874l107.68506 0l0 107.68506l-107.68506 0z" fill-rule="evenodd"/><path stroke="#595959" stroke-width="1.0" stroke-linejoin="round" stroke-linecap="butt" d="m2365.0552 1306.7874l107.68506 0l0 107.68506l-107.68506 0z" fill-rule="evenodd"/><path fill="#ffffff" d="m2415.6318 1372.2393l-1.203125 -16.265625q6.0625 -0.546875 9.46875 -2.640625q3.40625 -2.09375 3.40625 -6.703125q0 -3.921875 -2.28125 -6.25q-2.265625 -2.34375 -6.125 -2.34375q-3.859375 0 -6.265625 2.4375q-2.40625 2.421875 -2.9375 6.15625l-8.859375 -1.328125q0.46875 -4.59375 2.859375 -8.0625q2.40625 -3.46875 6.328125 -5.390625q3.9375 -1.9375 8.875 -1.9375q5.203125 0 9.203125 2.0q4.000244 2.0 6.297119 5.765625q2.296875 3.765625 2.296875 8.953125q0 4.078125 -1.84375 7.046875q-1.828125 2.953125 -4.96875 4.953125q-3.1252441 2.0 -7.125244 3.0l-0.59375 10.609375l-6.53125 0zm3.265625 16.453125q-2.328125 0 -4.0 -1.671875q-1.671875 -1.65625 -1.671875 -3.984375q0 -2.34375 1.671875 -4.0q1.671875 -1.671875 4.0 -1.671875q2.328125 0 4.0 1.671875q1.671875 1.65625 1.671875 4.0q0 2.328125 -1.671875 3.984375q-1.671875 1.671875 -4.0 1.671875z" fill-rule="nonzero"/><path fill="#595959" d="m2396.1733 1247.2994l18.175049 0l0 -74.89783l9.098389 0l0 74.89783l18.175293 0l-22.724365 32.78723z" fill-rule="evenodd"/><path fill="#000000" fill-opacity="0.0" d="m2034.488 1280.0873l184.44092 0l0 178.48828l-184.44092 0z" fill-rule="evenodd"/><path fill="#000000" d="m2135.3804 1397.1498q-0.078125 -1.0625 -0.3125 -2.53125q-0.234375 -1.46875 -0.5 -2.859375q-0.265625 -1.40625 -0.65625 -2.265625l5.265625 0q1.328125 0 1.796875 -0.4375q0.46875 -0.4375 0.46875 -1.703125l0 -12.0l-14.328125 0q1.265625 1.0625 2.890625 2.765625q1.640625 1.703125 3.140625 3.4375q1.5 1.734375 2.296875 3.0625q-0.671875 0.46875 -1.9375 1.4375q-1.265625 0.96875 -2.46875 1.96875q-1.1875 1.0 -1.734375 1.59375q-0.796875 -1.46875 -2.296875 -3.328125q-1.5 -1.875 -3.109375 -3.671875q-1.59375 -1.796875 -2.921875 -2.921875l5.40625 -4.34375l-4.40625 0l0 -6.921875l19.46875 0l0 -5.34375l-21.0 0l0 -6.734375l13.59375 0l0 -5.921875l-11.390625 0l0 -6.46875l11.390625 0l0 -7.734375l7.734375 0l0 7.734375l11.9375 0l0 6.46875l-11.9375 0l0 5.921875l15.59375 0l0 6.734375l-8.390625 0l0 5.34375l8.0 0l0 6.921875l-8.0 0l0 15.0q0 3.53125 -2.03125 5.15625q-2.03125 1.640625 -6.171875 1.640625l-5.390625 0zm-28.0625 -0.203125l0 -18.984375q-3.078125 1.125 -5.71875 2.0625q-2.625 0.9375 -4.09375 1.328125l-1.796875 -8.125q1.875 -0.40625 5.0 -1.375q3.140625 -0.96875 6.609375 -2.09375l0 -13.46875l-3.9375 0q-0.46875 2.46875 -1.0 4.640625q-0.53125 2.15625 -1.0625 3.6875q-0.734375 -0.265625 -2.046875 -0.5q-1.296875 -0.234375 -2.625 -0.453125q-1.328125 -0.234375 -2.328125 -0.234375q1.0625 -2.8125 1.890625 -6.4375q0.84375 -3.640625 1.375 -7.4375q0.53125 -3.796875 0.59375 -7.0625l6.875 0.671875q-0.078125 1.203125 -0.21875 2.796875q-0.125 1.59375 -0.328125 3.328125l2.8125 0l0 -13.0625l7.453125 0l0 13.0625l5.875 0l0 7.0l-5.875 0l0 10.9375q3.9375 -1.34375 5.9375 -2.203125l0 7.40625q-2.0625 1.0 -5.9375 2.59375l0 21.921875l-7.453125 0z" fill-rule="nonzero"/><path fill="#595959" d="m2293.881 1392.0386l0.012451172 -18.16272l-74.951904 0l0.0061035156 -9.092041l74.95215 0l0.0126953125 -18.162598l32.748535 22.708618z" fill-rule="evenodd"/><path fill="#595959" d="m2396.1733 1516.071l18.175049 0l0 -74.89783l9.098389 0l0 74.89783l18.175293 0l-22.724365 32.78723z" fill-rule="evenodd"/><path fill="#000000" fill-opacity="0.0" d="m2326.677 1548.859l184.44092 0l0 178.48816l-184.44092 0z" fill-rule="evenodd"/><path fill="#000000" d="m2388.9756 1664.1871l0 -6.734375l25.921875 0l0 -5.59375l-17.203125 0l0 -6.734375l17.203125 0l0 -3.796875l-6.59375 0l0 -14.59375l-4.9375 0q-0.671875 6.125 -3.046875 9.859375q-2.359375 3.734375 -6.625 6.671875q-1.0625 -1.203125 -2.796875 -2.765625q-1.734375 -1.578125 -3.1875 -2.296875q3.859375 -2.203125 5.828125 -4.796875q1.96875 -2.609375 2.5625 -6.671875l-7.328125 0l0 -6.671875l7.65625 0l0 -6.328125l-6.0625 0l0 -6.59375l30.796875 0l0 6.59375l-5.390625 0l0 6.328125l6.65625 0l0 6.671875l-6.65625 0l0 11.734375l7.1875 0l0 6.65625l16.875 0l0 6.734375l-16.875 0l0 5.59375l25.734375 0l0 6.734375l-59.71875 0zm44.125 -21.921875q-0.078125 -1.0625 -0.34375 -2.59375q-0.265625 -1.546875 -0.59375 -3.046875q-0.328125 -1.5 -0.734375 -2.296875l4.9375 0q1.328125 0 1.890625 -0.421875q0.578125 -0.4375 0.578125 -1.703125l0 -26.9375l7.53125 0l0 30.328125q0 3.46875 -1.96875 5.078125q-1.96875 1.59375 -6.03125 1.59375l-5.265625 0zm-8.265625 -9.40625l0 -24.265625l7.390625 0l0 24.265625l-7.390625 0zm-21.203125 -12.796875l4.671875 0l0 -6.328125l-4.671875 0l0 6.328125z" fill-rule="nonzero"/><path fill="#595959" d="m2586.07 1392.0386l0.012451172 -18.16272l-74.951904 0l0.0063476562 -9.092041l74.951904 0l0.0126953125 -18.162598l32.74878 22.708618z" fill-rule="evenodd"/><path fill="#000000" fill-opacity="0.0" d="m2618.866 1280.0873l184.44092 0l0 178.48828l-184.44092 0z" fill-rule="evenodd"/><path fill="#000000" d="m2683.8208 1380.6967l0 -42.265625l27.328125 0l0 42.265625l-27.328125 0zm40.0 16.25q-0.0625 -1.0625 -0.34375 -2.5q-0.265625 -1.421875 -0.59375 -2.8125q-0.328125 -1.40625 -0.734375 -2.28125l5.671875 0q1.328125 0 1.921875 -0.46875q0.609375 -0.46875 0.609375 -1.734375l0 -50.453125l7.53125 0l0 53.453125q0 3.609375 -2.0 5.203125q-2.0 1.59375 -6.140625 1.59375l-5.921875 0zm-7.0625 -16.25l0 -38.53125l7.390625 0l0 38.53125l-7.390625 0zm-5.609375 16.71875q-2.0 -1.390625 -4.234375 -3.46875q-2.234375 -2.0625 -4.234375 -4.359375q-1.984375 -2.296875 -3.53125 -4.359375l6.0 -4.203125q1.34375 1.859375 3.234375 3.9375q1.90625 2.0625 4.03125 3.859375q2.140625 1.796875 4.078125 2.9375q-1.28125 0.859375 -2.84375 2.59375q-1.5625 1.734375 -2.5 3.0625zm-26.65625 0q-0.875 -1.328125 -2.4375 -2.96875q-1.5625 -1.625 -2.890625 -2.5q1.921875 -1.125 4.046875 -2.953125q2.140625 -1.84375 4.078125 -3.96875q1.9375 -2.140625 3.203125 -4.0l6.0 4.203125q-1.46875 2.0625 -3.5 4.359375q-2.03125 2.296875 -4.234375 4.359375q-2.203125 2.078125 -4.265625 3.46875zm6.46875 -23.453125l13.125 0l0 -5.671875l-13.125 0l0 5.671875zm0 -11.734375l13.125 0l0 -5.53125l-13.125 0l0 5.53125zm0 -11.59375l13.125 0l0 -5.46875l-13.125 0l0 5.46875z" fill-rule="nonzero"/></g></svg>